<svg xmlns="http://www.w3.org/2000/svg" width="35" height="35" viewBox="0 0 35 35">
  <path id="ic_in" d="M1645.121,238.5a2.539,2.539,0,0,1,2.57-2.507h29.86a2.539,2.539,0,0,1,2.57,2.507v29.986a2.54,2.54,0,0,1-2.57,2.507h-29.86a2.54,2.54,0,0,1-2.57-2.507Zm10.813,10.987h-5.252v15.805h5.252Zm-2.625-2.159a2.927,2.927,0,1,0-.035,0Zm10.736,17.964v-8.827a3.56,3.56,0,0,1,.175-1.281,2.872,2.872,0,0,1,2.7-1.921c1.9,0,2.66,1.448,2.66,3.574v8.455h5.252v-9.065c0-4.856-2.59-7.114-6.046-7.114a5.22,5.22,0,0,0-4.736,2.61v.055h-.035l.035-.055v-2.236h-5.25c.066,1.483,0,15.805,0,15.805Z" transform="translate(-1645.121 -235.992)" fill="#fff"/>
</svg>
