<svg xmlns="http://www.w3.org/2000/svg" width="35" height="35" viewBox="0 0 35 35">
  <path id="ic_insta" d="M1732.621,239.146c4.672,0,5.227.017,7.073.1,4.742.216,6.958,2.466,7.173,7.174.085,1.844.1,2.4.1,7.071s-.017,5.227-.1,7.072c-.217,4.7-2.426,6.957-7.173,7.173-1.846.085-2.4.1-7.073.1s-5.227-.017-7.072-.1c-4.754-.217-6.957-2.478-7.173-7.175-.085-1.845-.1-2.4-.1-7.071s.019-5.226.1-7.072c.217-4.706,2.427-6.958,7.173-7.173,1.847-.083,2.4-.1,7.072-.1m0-3.154c-4.753,0-5.348.02-7.214.1-6.356.291-9.888,3.818-10.18,10.179-.086,1.868-.106,2.463-.106,7.216s.02,5.349.1,7.215c.292,6.356,3.818,9.888,10.179,10.18,1.868.084,2.463.1,7.216.1s5.349-.021,7.216-.1c6.349-.292,9.89-3.818,10.178-10.18.086-1.866.106-2.463.106-7.215s-.02-5.348-.1-7.215c-.286-6.349-3.817-9.887-10.178-10.179-1.868-.086-2.464-.106-7.217-.106m0,8.513a8.987,8.987,0,1,0,8.986,8.987,8.987,8.987,0,0,0-8.986-8.987m0,14.82a5.834,5.834,0,1,1,5.833-5.833,5.832,5.832,0,0,1-5.833,5.833m9.342-17.274a2.1,2.1,0,1,0,2.1,2.1,2.1,2.1,0,0,0-2.1-2.1" transform="translate(-1715.121 -235.992)" fill="#fff"/>
</svg>
