<?xml version="1.0" encoding="utf-8"?>
<!-- Generator: Adobe Illustrator 27.0.0, SVG Export Plug-In . SVG Version: 6.00 Build 0)  -->
<svg version="1.1" id="Layer_1" xmlns="http://www.w3.org/2000/svg" xmlns:xlink="http://www.w3.org/1999/xlink" x="0px" y="0px"
	 viewBox="0 0 160 75" style="enable-background:new 0 0 160 75;" xml:space="preserve">
<style type="text/css">
	.st0{clip-path:url(#SVGID_00000153705773452903843880000005856723791090308736_);}
</style>
<g>
	<defs>
		<rect id="SVGID_1_" y="0" width="160" height="75"/>
	</defs>
	<clipPath id="SVGID_00000038399072493807464070000007903984219119953587_">
		<use xlink:href="#SVGID_1_"  style="overflow:visible;"/>
	</clipPath>
	<g id="Footer_Logo" style="clip-path:url(#SVGID_00000038399072493807464070000007903984219119953587_);">
		<path id="패스_1416" d="M26.6,74.6c16.9,0,30.3-8.5,30.9-24C58,40,49.1,33.9,41.7,29.8c-4.7-2.2-8.6-4.3-8.6-7.2
			c0-1.8,1.8-3.3,3.9-3.3c3.5,0,6.3,3.3,7.5,6.4l19.3-9.5C62,9.7,54,0,39.2,0C20.8,0,7.5,10.6,8.1,24.8C8.6,35.5,17.2,41.5,24.3,45
			c4.4,2.2,7.9,4,7.9,6.7c0,2.1-1.5,3-3.6,3c-3.5,0-6.6-2.5-8.9-7.3L0,57C1.7,63.7,8.6,74.6,26.6,74.6 M109.3,73.2h45.3l5.4-31.5
			l-22.5,11l8.6-51.4h-24.6L109.3,73.2z M58.7,73.2H104l5.4-31.5l-22.5,11l8.6-51.4H70.9L58.7,73.2z"/>
	</g>
</g>
</svg>
