<svg xmlns="http://www.w3.org/2000/svg" xmlns:xlink="http://www.w3.org/1999/xlink" width="160" height="75" viewBox="0 0 160 75">
  <defs>
    <clipPath id="clip-path">
      <rect id="사각형_602" data-name="사각형 602" width="160" height="75" fill="#fff"/>
    </clipPath>
  </defs>
  <g id="Footer_Logo" clip-path="url(#clip-path)">
    <path id="패스_1416" data-name="패스 1416" d="M26.564,74.561c16.908,0,30.341-8.5,30.947-24.008.448-10.586-8.457-16.705-15.855-20.73-4.673-2.237-8.6-4.324-8.6-7.159,0-1.788,1.81-3.278,3.929-3.278,3.469,0,6.338,3.278,7.543,6.412l19.324-9.546C62.039,9.69,54.035,0,39.246,0c-18.415,0-31.7,10.586-31.1,24.756C8.6,35.493,17.2,41.456,24.3,45.039c4.377,2.237,7.852,4.025,7.852,6.711,0,2.087-1.514,2.978-3.626,2.978-3.469,0-6.641-2.536-8.905-7.309L0,56.965c1.659,6.711,8.6,17.6,26.564,17.6m82.718-1.34h45.282L160,41.755,137.5,52.79l8.609-51.449H121.5Zm-50.567,0H104l5.436-31.466L86.944,52.79l8.6-51.449h-24.6Z" transform="translate(0 0.006)" fill="#fff"/>
  </g>
</svg>
