<svg xmlns="http://www.w3.org/2000/svg" width="158" height="48" viewBox="0 0 158 48" fill="none">
  <path d="M156.698 38.0059H38.6804V38.2749H156.698V38.0059Z" fill="#E30012"/>
  <path d="M99.3847 30.3037L98.3608 34.2993H98.3509L97.3967 30.3037H95.4782L93.9177 36.4516H95.3391L96.3331 32.5257H96.343L97.347 36.4516H99.2356L100.806 30.3037H99.3847Z" fill="white"/>
  <path d="M90.6861 33.3828L91.7696 31.6192H91.7894L91.8988 33.3828H90.696H90.6861ZM91.1732 30.2939C89.8412 32.3565 88.5291 34.439 87.1375 36.4518H88.9168L89.9804 34.6782H91.8789L91.9882 36.4518H93.7079C93.4991 34.4092 93.2606 32.3167 93.1313 30.2939H91.1831H91.1732Z" fill="white"/>
  <path d="M102.814 31.9479C102.904 31.6291 103.371 31.5095 103.619 31.4996C104.096 31.4896 104.375 31.6191 104.683 31.8084C104.683 31.8084 104.991 30.5928 105.001 30.533C104.494 30.254 103.947 30.1743 103.54 30.1743C102.099 30.1743 101.353 31.0412 101.214 31.7686C100.946 33.2034 102.645 34.0006 102.456 34.6582C102.327 35.1464 101.85 35.1763 101.582 35.1763C101.124 35.1763 100.697 35.0269 100.319 34.8176L99.9813 36.2525C100.439 36.4119 101.095 36.5514 101.621 36.5514C103.301 36.5514 103.838 35.7941 104.017 34.9571C104.315 33.5223 102.605 32.7451 102.814 31.9479Z" fill="white"/>
  <path d="M86.3928 31.9479C86.4724 31.6291 86.9495 31.5095 87.188 31.4996C87.6751 31.4896 87.9534 31.6191 88.2616 31.8084C88.2616 31.8084 88.6592 30.6327 88.6592 30.5729C88.1224 30.2241 87.5161 30.1743 87.1085 30.1743C85.6672 30.1743 84.9217 31.0412 84.7826 31.7686C84.5142 33.2034 86.2139 34.0006 86.0251 34.6582C85.8859 35.1464 85.4187 35.1763 85.1603 35.1763C84.713 35.1763 84.2756 35.0269 83.8979 34.8176L83.5599 36.2525C84.0072 36.4119 84.6732 36.5514 85.2 36.5514C86.8799 36.5514 87.4167 35.7941 87.5956 34.9571C87.9037 33.5223 86.1841 32.765 86.3928 31.9479Z" fill="white"/>
  <path d="M128.291 34.2896H128.281L127.326 30.2939H125.418L123.847 36.4418H125.269L126.273 32.506H126.283L127.277 36.4418H129.165L130.736 30.2939H129.314L128.291 34.2896Z" fill="white"/>
  <path d="M110.259 31.6092H112.595L112.933 30.2939H108.977L107.406 36.4418H109.026L109.643 34.0106H111.601L111.939 32.6853H109.98L110.259 31.6092Z" fill="white"/>
  <path d="M135.875 30.2939H131.302L130.974 31.6092H132.445L131.213 36.4418H132.833L134.065 31.6092H135.537L135.875 30.2939Z" fill="white"/>
  <path d="M136.442 30.2939L134.871 36.4418H136.492L138.062 30.2939H136.442Z" fill="white"/>
  <path d="M141.719 34.0106L142.057 32.6853H140.029L140.307 31.6092H142.862L143.2 30.2939H139.025L137.455 36.4418H141.639L141.967 35.1166H139.413L139.701 34.0106H141.719Z" fill="white"/>
  <path d="M152.086 34.0106L152.414 32.6853H150.347L150.625 31.6092H153.189L153.517 30.2939H149.343L147.772 36.4418H151.947L152.285 35.1166H149.73L150.009 34.0106H152.086Z" fill="white"/>
  <path d="M122.406 33.3729C122.137 34.3594 121.392 35.2163 120.477 35.2163C119.493 35.2163 119.245 34.3295 119.483 33.3829C119.722 32.4363 120.438 31.5395 121.412 31.5395C122.386 31.5395 122.634 32.3865 122.406 33.3729ZM121.75 30.1943C119.921 30.1943 118.39 31.3402 117.863 33.3729C117.346 35.4255 118.3 36.5614 120.129 36.5614C121.849 36.5614 123.41 35.5451 123.986 33.5523C124.583 31.39 123.579 30.1943 121.75 30.1943Z" fill="white"/>
  <path d="M155.446 31.9477C155.536 31.6289 156.003 31.5093 156.252 31.4994C156.729 31.4894 157.017 31.6189 157.315 31.8082C157.315 31.8082 157.633 30.5926 157.633 30.5328C157.136 30.2439 156.58 30.1841 156.172 30.1841C154.731 30.1841 153.975 31.041 153.846 31.7783C153.568 33.2132 155.277 34.0103 155.089 34.668C154.949 35.1662 154.482 35.1861 154.214 35.1861C153.757 35.1861 153.329 35.0366 152.952 34.8174L152.604 36.2523C153.061 36.4117 153.717 36.5512 154.244 36.5512C155.924 36.5512 156.46 35.7939 156.639 34.9569C156.947 33.5221 155.218 32.7249 155.437 31.9477" fill="white"/>
  <path d="M116.144 33.7416C116.969 33.5921 117.595 32.8647 117.774 32.1672C118.082 30.9516 117.724 30.2939 116.372 30.2939H113.629L112.068 36.4418H113.609L114.842 31.5793H115.637C115.865 31.5793 116.362 31.5793 116.203 32.237C116.084 32.7252 115.706 33.0441 114.991 33.0341H114.414L114.981 36.4418H116.72C116.72 36.4418 116.154 33.8711 116.134 33.7416" fill="white"/>
  <path d="M146.541 33.7416C147.356 33.5921 147.992 32.8547 148.171 32.1672C148.479 30.9516 148.121 30.2939 146.769 30.2939H144.026L142.465 36.4418H144.016L145.248 31.5793H146.044C146.272 31.5793 146.779 31.5793 146.61 32.237C146.481 32.7252 146.113 33.0441 145.398 33.0341H144.821L145.388 36.4418H147.127C147.127 36.4418 146.56 33.8711 146.541 33.7416Z" fill="white"/>
  <path d="M61.6337 36.4418L61.9716 35.1266H59.4071L59.6954 34.0106H61.7828L62.1207 32.6953H60.0333L60.3017 31.6192H62.8662L63.2042 30.2939H59.0194L57.4589 36.4418H61.6337Z" fill="white"/>
  <path d="M50.7988 36.4418L51.1368 35.1266H48.5822L48.8605 34.0106H50.928L51.266 32.6953H49.1985L49.4768 31.6192H52.0314L52.3693 30.2939H48.1945L46.624 36.4418H50.7988Z" fill="white"/>
  <path d="M65.1322 36.5414C65.4205 36.5414 66.2355 36.4517 66.6928 36.3621L67.0804 34.9372C66.6033 35.0667 66.1163 35.1863 65.4702 35.1863C64.4762 35.1863 64.2277 34.2995 64.4762 33.3529C64.6849 32.5358 65.4304 31.5095 66.6928 31.5095C67.1103 31.5095 67.488 31.6191 67.8558 31.7586L68.2037 30.3836C67.8259 30.2441 67.2097 30.1743 66.7624 30.1743C64.9135 30.1743 63.3629 31.3102 62.8361 33.3529C62.3092 35.3955 63.2834 36.5414 65.1322 36.5414Z" fill="white"/>
  <path d="M69.117 36.4418L70.6776 30.2939H69.0574L67.4968 36.4418H69.117Z" fill="white"/>
  <path d="M41.8936 32.0476H41.9135L41.824 36.4418H43.2057L45.3825 32.0377H45.4024L44.2792 36.4418H45.6509L47.2214 30.2939H45.0644L43.156 34.16H43.146L43.2454 30.2939H40.9691L39.4086 36.4418H40.7703L41.8936 32.0476Z" fill="white"/>
  <path d="M71.5031 36.4418L72.4971 32.516H72.517L73.511 36.4418H75.3996L76.9701 30.2939H75.5487L74.5348 34.2995H74.5149L73.5607 30.2939H71.6522L70.0817 36.4418H71.5031Z" fill="white"/>
  <path d="M56.0068 33.3629C55.7782 34.2697 55.1321 35.1266 54.2375 35.1266H53.5417L54.4363 31.6092H55.2414C56.1062 31.6092 56.2951 32.227 56.0068 33.3629ZM57.627 33.3629C58.2831 30.7623 56.8815 30.2939 56.1261 30.2939H53.2137L51.6531 36.4418H54.2275C55.9969 36.4418 57.1698 35.1465 57.637 33.3629" fill="white"/>
  <path d="M78.9882 31.9479C79.0677 31.6291 79.5349 31.5095 79.7933 31.4996C80.2704 31.4996 80.5488 31.6191 80.8569 31.8084C80.8569 31.8084 81.165 30.5928 81.175 30.533C80.678 30.2441 80.1213 30.1743 79.7138 30.1743C78.2625 30.1743 77.5171 31.0412 77.3779 31.7686C77.1095 33.2034 78.8092 34.0006 78.6303 34.6582C78.4912 35.1464 78.024 35.1763 77.7556 35.1763C77.3083 35.1763 76.871 35.0269 76.4932 34.8176L76.1453 36.2525C76.6026 36.4119 77.2586 36.5514 77.7854 36.5514C79.4653 36.5514 80.0021 35.7941 80.181 34.9571C80.4891 33.5223 78.7695 32.755 78.9782 31.9479" fill="white"/>
  <path d="M16.5752 39.8496C17.0225 39.5906 18.0364 39.0425 18.1557 38.9728C18.3445 38.8632 18.4638 38.8731 18.4738 38.9329C18.5036 39.1621 18.4936 39.6404 18.7819 39.74C18.8714 39.7699 19.0801 39.6603 19.1199 39.7201C19.2292 39.8795 19.2292 39.8496 19.259 39.8895C19.2988 39.9493 19.4379 39.9194 19.4678 39.9493C19.5473 40.019 19.4678 40.1187 19.5175 40.1685C19.587 40.2482 19.7262 40.1187 19.8057 40.1386C19.9349 40.1685 19.9648 40.3179 19.9449 40.4076C19.9151 40.567 20.0045 40.6866 20.253 40.4774C20.3922 40.3578 20.4021 40.4176 20.5115 40.3578C20.581 40.3279 20.6904 40.3279 20.7401 40.3777C20.7898 40.4275 20.8693 40.5073 20.9389 40.5372C21.0482 40.577 21.1576 40.5372 21.2271 40.5571C21.3265 40.5969 21.3265 40.7464 21.416 40.7564C21.4955 40.7663 21.585 40.6069 21.6347 40.6567C21.7838 40.7962 21.5055 41.0453 21.7043 41.0951C21.8037 41.125 21.8534 41.0354 21.9329 41.0254C22.0124 41.0154 22.0621 40.9158 22.1416 40.9158C22.2211 40.9158 22.2708 40.9955 22.3603 40.9457C22.4398 40.9058 22.4995 40.8759 22.5591 40.8361C22.6585 40.7763 22.7679 40.8062 22.8275 40.7564C22.907 40.6966 22.8474 40.5372 23.0561 40.577C23.2748 40.6169 23.0263 40.8162 23.1157 40.8959C23.1853 40.9556 23.3742 40.8959 23.4338 40.8759C23.5531 40.8361 23.6624 40.6966 23.7022 40.5969C23.742 40.4774 23.9308 40.0788 24.0004 39.9692C24.07 39.8596 24.2589 39.4411 24.3483 39.2916C24.4477 39.1521 24.8254 38.5344 24.8652 38.4347C24.905 38.3351 25.0441 38.2055 25.0739 38.1358C25.1038 38.066 25.1833 37.8169 25.2827 37.6276C25.3821 37.4383 25.6405 37.0497 25.6703 36.9799C25.6902 36.9102 25.899 36.4419 25.9685 36.2924C26.0381 36.1529 26.2966 35.8241 26.3562 35.6647C26.4158 35.5052 26.5848 35.1764 26.5848 35.1764L26.7637 34.8775C26.7637 34.8775 26.8234 34.748 26.9029 34.5686C26.9924 34.3893 27.2409 34.0007 27.3104 33.8711C27.38 33.7416 27.5888 33.4626 27.5888 33.4626L27.7478 33.1138L27.8671 32.8448C27.8671 32.8448 27.9665 32.5359 28.0162 32.4462C28.0659 32.3566 28.2249 32.1573 28.2846 32.0477C28.3243 31.9381 28.4834 31.4598 28.5529 31.3103C28.6225 31.1609 28.9704 30.5431 29.0102 30.4235C29.04 30.3039 29.4078 29.6463 29.4376 29.5168C29.4774 29.3773 29.4873 29.1979 29.537 29.1182C29.5867 29.0385 29.7259 28.8193 29.7557 28.7595C29.7756 28.6997 30.0141 28.1218 30.0539 28.0321C30.0936 27.9524 30.1135 27.793 30.2129 27.793C30.3024 27.793 30.372 27.8926 30.4415 27.9823C30.5111 28.0819 30.6602 28.072 30.7397 28.1517C30.8193 28.2414 31.0976 28.5403 31.1175 28.5801C31.1274 28.63 31.2864 28.6399 31.3163 28.6897C31.3461 28.7396 31.3759 28.8591 31.4256 28.8791C31.4753 28.899 31.7139 29.0684 31.7636 29.1481C31.8133 29.2178 31.8729 29.3673 31.9325 29.4171C31.9922 29.467 32.2705 29.6363 32.3103 29.7061C32.3401 29.7758 32.7377 30.2641 32.7973 30.3438C32.847 30.4235 32.8768 30.573 32.9166 30.6328C32.9464 30.6925 33.0955 30.7822 33.1055 30.842C33.1154 30.9018 33.1353 31.121 33.175 31.1808C33.2049 31.2406 33.3738 31.3103 33.4037 31.3801C33.4335 31.4399 33.5031 31.669 33.5329 31.7089C33.5627 31.7388 33.6422 31.7986 33.6621 31.8384C33.6919 31.8882 33.7118 32.1573 33.7416 32.1971C33.7814 32.247 33.9007 32.4562 33.9305 32.5359C33.9702 32.6256 34.0895 32.7751 34.1094 32.8348C34.1293 32.8946 34.1492 33.1338 34.169 33.2234C34.1989 33.3131 34.3082 33.4925 34.3181 33.5323C34.3181 33.5822 34.3579 33.7217 34.3579 33.7217L34.4474 33.9508C34.4474 33.9508 34.5567 34.18 34.5567 34.2597C34.5567 34.3394 34.5766 34.4391 34.5965 34.4989C34.6064 34.5586 34.7058 34.7081 34.7058 34.7579C34.7058 34.8078 34.835 35.0867 34.835 35.0867C34.835 35.0867 34.8052 35.3259 34.835 35.3857C34.8648 35.4455 34.9642 35.6148 34.9642 35.6746C34.9642 35.7344 34.9344 35.8938 34.9344 35.8938L34.9941 35.9935C34.9941 35.9935 34.9642 36.123 34.9941 36.1728C35.0139 36.2227 34.9642 36.3323 34.9941 36.3622C35.0338 36.3921 35.1332 36.6511 35.1332 36.6511C35.0636 36.7408 30.0439 39.0625 27.887 40.0688C24.7956 41.5136 18.3545 44.752 17.6686 45.1506C16.9828 45.5491 16.5553 45.7783 16.3864 45.6886C15.9987 45.4893 15.3824 44.9413 14.9649 43.7556C14.6071 42.7592 14.6071 41.9321 14.6369 41.5136C14.6568 41.1948 14.6369 40.9556 15.114 40.6767C15.283 40.577 16.1677 40.0788 16.615 39.8197" fill="#E30012"/>
  <path d="M7.65742 22.0434C7.6773 22.0932 7.78664 22.0833 7.86616 22.1032C7.90592 22.1132 7.98544 22.1929 8.03514 22.2028C8.08484 22.2028 8.15442 22.1829 8.18424 22.2028C8.26376 22.2626 8.24388 22.3423 8.29358 22.4121C8.34328 22.4818 8.36316 22.6014 8.44268 22.6313C8.51226 22.6512 8.61166 22.6413 8.63154 22.711C8.66136 22.7808 8.60172 22.9003 8.66136 22.99C8.79058 23.2291 8.68124 23.8967 8.80052 23.9466C8.9198 23.9964 9.27764 23.8768 9.40686 23.7672C9.53608 23.6476 9.715 23.4484 9.8144 23.4085C10.0033 23.3288 10.3611 23.1295 10.54 23.0896C10.709 23.0498 10.7985 22.7708 10.9674 22.7509C11.1364 22.7409 11.0768 22.6014 11.1961 22.5516C11.3153 22.5018 11.534 22.3822 11.6135 22.4519C11.6434 22.4818 11.7129 22.5815 11.8322 22.6213C11.9614 22.6711 12.1006 22.6014 12.1304 22.7509C12.1602 22.9701 12.4883 22.7708 12.4883 22.7708C12.4883 22.7708 12.8859 22.5117 13.0548 22.442C13.2238 22.3722 13.6711 22.1331 13.6711 22.1331C13.6711 22.1331 14.019 21.9537 14.1681 21.884C19.5854 19.2734 23.8596 17.8385 27.776 16.314C33.8792 13.9425 44.4553 11.2223 46.4632 10.7241C46.6719 10.6743 47.1391 10.5946 47.1988 10.5647C47.2584 10.5348 47.3578 10.5049 47.3976 10.3156C47.4473 10.1262 47.2982 9.85721 47.2982 9.75757C47.2982 9.65793 47.5168 9.26933 47.5367 9.1099C47.5566 8.94051 47.3976 8.92058 47.3976 8.92058C47.3976 8.92058 47.4174 8.71133 47.3677 8.56187C47.318 8.41241 47.0497 8.27291 47.0099 8.15334C46.9602 8.03377 47.0099 7.67506 46.9602 7.55549C46.9105 7.43592 46.7614 7.33628 46.7614 7.33628C46.7614 7.33628 46.8012 7.27649 46.7614 7.16688C46.7316 7.05728 46.6222 7.06724 46.6222 7.06724C46.6222 7.06724 46.662 6.83807 46.6421 6.74839C46.6222 6.66868 46.503 6.60889 46.503 6.60889C46.503 6.60889 46.3539 6.51921 46.3539 6.41957C46.3539 6.31993 46.324 6.25018 46.2545 6.20036C46.1749 6.15054 45.9662 6.15054 45.8966 6.13061C45.827 6.11068 45.6581 6.06086 45.5388 6.08079C45.4195 6.10072 45.3698 6.20036 45.0318 6.27011C44.6939 6.34982 44.5547 6.27011 44.4056 6.3C44.2665 6.32989 44.0975 6.42954 43.9285 6.46939C42.2983 6.89785 34.7936 9.08001 29.2571 11.1725C24.1181 13.1055 17.9851 15.9055 14.2476 17.8485C11.4247 19.3232 9.9138 20.1801 9.28758 20.5687C8.95956 20.768 8.61166 21.0071 8.55202 21.0968C8.46256 21.2463 8.3731 21.4655 8.18424 21.4954C7.96556 21.5352 7.98544 21.6548 7.91586 21.6747C7.8264 21.6947 7.727 21.7843 7.65742 21.8541C7.58784 21.9238 7.61766 22.0235 7.63754 22.0733" fill="#E30012"/>
  <path d="M31.0174 18.6754C30.7689 18.526 30.8484 18.3865 31.1367 18.2569C32.9259 17.4897 37.4486 15.8755 40.033 15.0485C42.2397 14.351 48.3528 12.3482 50.0525 11.8599C50.4601 11.7404 50.629 11.7404 50.808 11.9396C51.2652 12.4378 51.7224 13.0955 52.1399 13.9125C52.5276 14.6698 52.8655 15.7659 52.9948 16.4534C53.0942 16.9616 52.8556 17.0513 52.5872 17.1708C50.6986 18.0178 46.0368 20.0704 44.0985 20.9871C42.1999 21.8839 38.7408 23.5579 37.5579 24.1458C37.0609 24.3949 37.1405 24.4945 36.8025 24.1159C36.7031 23.9963 36.5341 23.7273 36.4844 23.6575C36.4347 23.5878 35.7886 23.0098 35.7091 22.9401C35.6395 22.8604 35.2717 22.4319 35.1823 22.3622C35.0829 22.2924 34.7747 21.854 34.6753 21.8042C34.5759 21.7544 34.4169 21.6746 34.3473 21.6049C34.2777 21.5351 34.1485 21.3857 34.0789 21.3359C34.0094 21.286 33.8404 21.1166 33.8404 21.1166L33.6217 20.9174L33.4328 20.6981C33.4328 20.6981 33.2639 20.4789 33.1446 20.4391C33.0253 20.3893 32.8563 20.1999 32.8066 20.1202C32.7569 20.0505 32.3792 19.5622 32.1804 19.4427C31.9915 19.3231 31.5244 19.0242 31.425 18.9445C31.3256 18.8747 31.2063 18.795 30.9975 18.6754" fill="#E30012"/>
  <path d="M37.8968 25.2817C37.7079 25.0924 37.9465 25.0725 38.1651 24.9927C38.9603 24.6839 43.662 23.2092 47.7572 22.1231C51.8426 21.0469 57.747 19.8213 58.6316 19.642C58.9994 19.5722 59.1386 19.6221 59.3274 19.9309C59.5461 20.2797 59.9934 21.4455 60.1723 22.3921C60.391 23.5878 60.1723 24.8034 60.0729 25.0924C59.9835 25.3315 59.6554 25.3515 58.8602 25.5707C58.3831 25.7002 56.3454 26.2283 55.5105 26.4674C54.5463 26.7464 52.0016 27.4838 51.0673 27.8026C49.9043 28.2012 48.3735 28.7094 48.3735 28.7094L40.2724 28.8489C40.2724 28.8489 40.1531 28.3009 40.0836 28.251C40.004 28.2012 39.8848 27.9322 39.8152 27.8624C39.7456 27.7927 39.6462 27.5236 39.6462 27.5236C39.6462 27.5236 39.5766 27.2347 39.4971 27.1849C39.4275 27.135 39.2585 26.7165 39.179 26.6767C39.1094 26.6269 38.9405 26.4176 38.8709 26.318C38.7914 26.2183 38.7516 26.0988 38.6323 26.0091C38.513 25.9094 38.3639 25.7201 38.2645 25.6703C38.1651 25.6205 38.0856 25.471 37.8968 25.2917" fill="#E30012"/>
  <path d="M28.0946 9.61811C27.866 9.61811 27.6573 9.61811 27.6076 9.55833C27.5777 9.51847 27.6076 9.45869 27.5579 9.40887C27.4982 9.35905 27.3889 9.37897 27.3491 9.40887C27.3193 9.43876 27.3193 9.43876 27.2398 9.45869C27.1603 9.48858 26.8521 9.37897 26.7428 9.40887C26.6334 9.44872 26.4048 9.45869 26.3253 9.40887C26.2458 9.36901 26.2358 9.15976 26.0967 9.09998C26.0271 9.07008 25.7985 8.94055 25.7289 8.82098C25.6593 8.69145 25.4605 8.50213 25.4208 8.41245C25.381 8.32277 25.3214 8.18327 25.2915 8.10356C25.2617 8.03381 25.1921 7.87438 25.1524 7.82456C25.1027 7.77474 25.043 7.72492 25.0033 7.6751C24.9536 7.62528 24.9138 7.44592 24.8641 7.37617C24.8442 7.33632 24.7846 7.2566 24.7548 7.20678C24.725 7.147 24.725 7.08721 24.7051 7.01746C24.6753 6.94771 24.5957 6.85804 24.5759 6.78829C24.556 6.7285 24.5262 6.30004 24.5361 5.97122C24.5361 5.64241 24.5361 5.35345 24.5759 5.22391C24.6057 5.09438 24.6753 4.96484 24.7051 4.83531C24.725 4.69581 24.9039 4.25739 24.9436 4.04814C24.9834 3.83889 25.0927 3.45029 25.1524 3.32075C25.2021 3.18126 25.3412 2.82254 25.4208 2.70297C25.4903 2.5834 25.7687 2.18484 25.8681 2.04534C25.9774 1.90584 26.4744 1.4176 26.5937 1.32792C26.713 1.23824 26.9813 1.03896 27.0708 0.969207C27.1205 0.929351 27.4684 0.69021 27.5877 0.620461C27.6672 0.57064 27.8064 0.57064 27.8064 0.57064L27.9256 0.45107C27.9256 0.45107 27.9952 0.381321 28.0549 0.3315C28.1145 0.281679 28.2735 0.281679 28.2735 0.281679C28.2735 0.281679 28.4525 0.142181 28.6314 0.182037C28.7109 0.192001 28.7606 0.052503 28.8401 0.0325746C28.9097 0.0126463 29.1781 -0.0172463 29.2079 0.0126463C29.2477 0.052503 29.2874 0.0923597 29.4365 0.122252C29.5757 0.152145 29.7049 0.122252 29.7546 0.122252C29.8341 0.142181 29.9136 0.241822 29.9633 0.251787C30.013 0.271715 30.679 0.87953 30.7685 1.02899C30.7983 1.07881 30.8082 1.17846 30.8281 1.20835C30.8579 1.25817 30.9673 1.32792 31.007 1.49731C31.0369 1.62684 31.176 1.6667 31.186 1.85602C31.186 1.96563 31.4046 2.06527 31.4643 2.29444C31.4842 2.35423 31.504 2.5834 31.5239 2.6133C31.5438 2.65315 31.5836 2.66312 31.6134 2.74283C31.6432 2.82254 31.6631 2.94211 31.6531 3.04176C31.6432 3.1414 31.8221 3.51007 31.8122 3.73925C31.7923 3.95846 31.7525 4.20757 31.6929 4.37696C31.6333 4.54635 31.673 4.87517 31.6333 5.01466C31.6034 5.1442 31.504 5.47302 31.4842 5.57266C31.4643 5.6723 31.186 6.35983 31.1462 6.42958C31.0965 6.49933 30.9474 6.80822 30.8679 6.90786C30.7983 6.99754 30.2417 7.77474 30.1423 7.87438C30.0429 7.97403 29.7944 8.16334 29.7447 8.23309C29.6751 8.33274 29.6254 8.45231 29.5558 8.57188C29.4465 8.75123 29.2974 8.6217 29.2178 8.74127C29.1184 8.91066 28.9296 8.96048 28.8898 9.06012C28.8401 9.21955 28.7109 9.34908 28.6513 9.3989C28.5121 9.50851 28.2338 9.58822 28.0946 9.59819" fill="#E30012"/>
  <path d="M11.8929 33.4327C11.8929 33.4327 9.51724 34.2398 8.57294 34.5786C7.6684 34.8974 6.69428 35.2462 6.0283 35.5152C5.2331 35.844 3.81168 36.4219 3.46378 36.5415C2.93696 36.7308 2.71828 36.6212 2.56918 36.3024C2.43002 35.9935 2.08212 35.3358 1.89326 34.5686C1.7044 33.7914 1.63482 33.1537 1.61494 32.9146C1.605 32.6754 1.8038 32.2569 2.09206 32.0975C2.38032 31.9381 3.06618 31.5096 3.62282 31.2007C4.67646 30.5929 8.32444 28.6399 10.4914 27.514C12.7875 26.3183 16.4156 24.5646 18.3638 23.598C20.3121 22.6315 23.5128 21.117 23.8905 20.9476C24.2782 20.7782 24.6758 20.5889 24.8746 20.5889C25.0734 20.5889 24.9938 20.6785 24.9938 20.7583C24.9938 20.838 24.9243 20.8579 24.9044 21.0074C24.8845 21.1469 24.9044 21.3163 24.8547 21.4558C24.805 21.5953 24.6758 21.7347 24.6559 21.8344C24.636 21.934 24.6062 22.2728 24.5167 22.3924C24.4273 22.512 24.0794 23.1895 23.9998 23.4984C23.9303 23.8073 23.7712 24.3254 23.7016 24.445C23.6321 24.5646 23.4034 25.013 23.3736 25.1624C23.3537 25.3119 23.1947 25.6507 23.145 25.7902C23.0953 25.9297 22.807 26.4777 22.7573 26.5674C22.7076 26.6571 22.5188 27.3047 22.4691 27.4044C22.4194 27.504 22.2305 27.793 22.2305 27.793L22.1311 28.2015C22.1311 28.2015 21.8627 28.5901 21.8627 28.6599C21.8627 28.7296 21.6739 29.3872 21.5745 29.5267C21.4751 29.6662 21.0178 30.7025 20.9284 31.0712C20.829 31.4299 20.66 31.968 20.6202 32.0875C20.5705 32.2071 20.3121 32.6356 20.2624 32.785C20.2127 32.9345 19.994 33.6519 19.9244 33.8014C19.8549 33.9409 19.666 34.3594 19.666 34.4989C19.666 34.6384 19.5169 34.9572 19.3976 35.2163C19.2783 35.4853 19.1292 35.9437 19.0596 36.1131C18.9801 36.2824 18.8907 36.402 18.8608 36.4917C18.841 36.5913 18.8111 36.8504 18.7913 36.9301C18.7714 36.9999 18.7217 37.1194 18.7217 37.1194C18.6024 37.1792 12.1315 39.9592 11.2269 40.3977C10.3124 40.8361 3.7421 43.9449 3.33456 44.1442C2.92702 44.3335 2.38032 44.762 1.98272 44.4929C1.46584 44.1342 0.968838 43.3969 0.630878 42.7392C0.352558 42.1912 0.0543578 41.2745 0.00465773 40.6169C-0.0450423 39.7898 0.292918 39.6304 1.5056 38.923C2.102 38.5742 6.8235 36.0832 8.33438 35.296C8.7618 35.0768 11.873 33.4327 11.873 33.4327" fill="#E30012"/>
  <path d="M111.064 44.2338C111.263 43.4865 110.537 42.8986 109.255 42.8986C107.972 42.8986 106.939 43.4865 106.74 44.2338C106.571 44.8516 107.038 45.3597 107.933 45.5092L107.803 46.0074C107.068 46.0273 106.342 46.0273 105.617 46.0273L105.497 46.9739C106.889 46.9739 109.483 46.8444 111.074 46.6551C111.114 46.3661 111.173 46.0772 111.213 45.7882C110.497 45.8579 109.791 45.9177 109.096 45.9476L109.215 45.4992C110.169 45.3398 110.895 44.8416 111.054 44.2338M114.374 40.3976H113.072L111.034 48.0002H112.336L114.364 40.3976H114.374ZM111.849 42.769L112.078 41.9221H106.939L106.71 42.769H111.849ZM108.37 41.6032H110.885L111.114 40.7563H108.599L108.37 41.6032ZM109.742 44.2238C109.662 44.5227 109.235 44.742 108.758 44.742C108.281 44.742 107.982 44.5227 108.062 44.2238C108.141 43.9149 108.559 43.6857 109.046 43.6857C109.533 43.6857 109.831 43.9149 109.752 44.2238M102.674 40.3876H101.392L99.3545 47.9903H100.637L101.67 44.1341H102.873L103.122 43.2075H101.919L102.674 40.3876ZM99.8117 45.2601C98.6189 44.5925 98.2014 43.5462 98.6289 41.952L98.8774 41.0054H97.5355L97.2671 41.9918C96.8397 43.5861 95.9252 44.7121 94.2056 45.4893C94.3944 45.7683 94.5932 46.0572 94.7821 46.3362C95.6568 45.9875 96.9291 45.011 97.3665 44.2238C97.4261 44.9612 98.2014 45.7982 98.8277 46.1369C99.1557 45.838 99.4837 45.549 99.8117 45.2501M85.7665 42.6694C85.9156 42.1114 86.512 41.7527 87.1183 41.7527C87.7247 41.7527 88.1422 42.1114 87.9931 42.6694C87.844 43.2274 87.2277 43.5961 86.6213 43.5961C86.015 43.5961 85.6174 43.2274 85.7665 42.6694ZM89.0467 45.2003C88.3708 45.2601 87.2774 45.3298 86.0945 45.3597C85.2198 45.3797 84.3252 45.3797 83.3113 45.3797L83.192 46.3661C83.9674 46.3661 85.0508 46.3462 86.015 46.3063C86.9295 46.2665 88.2217 46.1668 88.8976 46.0871L89.0467 45.2003ZM92.0287 40.3677H90.7365L88.7087 47.9703H90.0009L92.0287 40.3677ZM84.5041 42.6594C84.2059 43.7655 85.0409 44.4829 86.3828 44.4829C87.7247 44.4829 88.9672 43.7655 89.2654 42.6594C89.5536 41.5733 88.7087 40.846 87.3569 40.846C86.0051 40.846 84.8023 41.5634 84.5041 42.6594ZM80.0311 44.9412L80.2697 44.0445H72.3972L72.1586 44.9412H80.0311ZM79.4944 43.3968L79.7329 42.51H75.1506L75.6575 40.6168H74.3554L73.6099 43.3968H79.4944ZM78.3612 47.781L78.5997 46.8942H73.9081L74.2758 45.5192H72.9737L72.3674 47.7711H78.3711L78.3612 47.781ZM64.1967 47.8408L64.3458 47.2928L64.7036 47.9703C65.2006 47.8408 66.0157 47.4223 66.4232 46.8942C66.5226 47.4223 67.0892 47.8308 67.4769 47.9305L68.3715 47.0437C67.5564 46.8344 67.2582 46.2067 67.4769 45.3996L67.6459 44.7619H66.3735L66.2046 45.3996C65.9759 46.2366 65.2801 46.7946 64.4154 47.0337L65.0118 44.8217H63.809L63.5903 45.6288H62.8448L63.0536 44.8615H61.8409L61.0457 47.8408H64.2066H64.1967ZM61.6322 42.51C61.3538 43.5562 62.1391 44.2936 63.4512 44.2936C64.7633 44.2936 65.9461 43.5761 66.2244 42.51C66.5127 41.4438 65.6976 40.7364 64.3955 40.7364C63.0933 40.7364 61.9204 41.4438 61.6322 42.51ZM68.3019 44.4331L69.3854 40.3776H68.0733L67.6359 42.0217H66.6618L66.4232 42.9285H67.3974L66.9898 44.4331H68.3019ZM62.8747 42.5199C63.0138 41.9819 63.5406 41.6531 64.147 41.6531C64.7533 41.6531 65.1211 41.9819 64.972 42.5199C64.8229 43.068 64.2762 43.3968 63.6798 43.3968C63.0834 43.3968 62.7256 43.058 62.8747 42.5199ZM63.2126 47.0138H62.4671L62.6162 46.4458H63.3617L63.2126 47.0138ZM55.2706 46.406C55.1612 46.8344 54.4952 47.0935 53.4217 47.0935C52.3482 47.0935 51.8711 46.8245 51.9904 46.406C52.1096 45.9875 52.7756 45.7085 53.7994 45.7085C54.873 45.7085 55.3898 45.9775 55.2805 46.406M57.0299 44.6622L58.173 40.3776H56.861L56.5429 41.5833H55.2109L54.9823 42.4502H56.3143L56.1353 43.1178H54.7239L54.4952 43.9847H55.9067L55.7278 44.6622H57.0399H57.0299ZM51.1753 40.8559L50.9268 41.7826H53.6305C53.203 42.7491 51.5629 43.7156 49.903 43.9946L50.1614 44.8815C52.7756 44.3035 54.704 42.9484 55.3203 40.8559H51.1653H51.1753ZM56.6224 46.396C56.8808 45.4295 55.9365 44.8017 54.038 44.8017C52.1395 44.8017 50.9069 45.4394 50.6485 46.396C50.39 47.3625 51.3343 47.9803 53.1931 47.9803C55.0519 47.9803 56.364 47.3625 56.6224 46.396ZM39.297 45.2601L39.0584 46.1469H43.7501L43.263 47.9703H44.5652L45.2908 45.2601H42.9947L43.3127 44.0544H46.5929L46.8315 43.1676H45.6288C46.0264 42.4502 46.3444 41.5036 46.5532 40.6267H40.6886L40.45 41.5136H45.0224C44.9031 42.0018 44.595 42.769 44.3763 43.1676H38.9491L38.7105 44.0544H42.0007L41.6826 45.2601H39.297Z" fill="white"/>
</svg>