<svg xmlns="http://www.w3.org/2000/svg" width="24" height="24" viewBox="0 0 24 24" fill="none">
<style>
    @media (max-width: 1023px) {
      path {
        fill: #212121 !important;
      }
    }
  </style>
  <path d="M6 11C5.44772 11 5 11.4477 5 12C5 12.5523 5.44772 13 6 13L6 11ZM18.7071 12.7071C19.0976 12.3166 19.0976 11.6834 18.7071 11.2929L12.3431 4.92893C11.9526 4.53841 11.3195 4.53841 10.9289 4.92893C10.5384 5.31946 10.5384 5.95262 10.9289 6.34315L16.5858 12L10.9289 17.6569C10.5384 18.0474 10.5384 18.6805 10.9289 19.0711C11.3195 19.4616 11.9526 19.4616 12.3431 19.0711L18.7071 12.7071ZM6 13L18 13L18 11L6 11L6 13Z" fill="white"/>
</svg>