
<svg width="19" height="15" viewBox="0 0 19 15" fill="none" xmlns="http://www.w3.org/2000/svg">
<path d="M14.8125 14.5859C13.7188 14.5859 12.7891 14.2031 12.0234 13.4375C11.2578 12.6719 10.875 11.7422 10.875 10.6484C10.875 10.4661 10.8932 10.0469 10.9297 9.39062C10.9661 8.69792 11.1302 7.8776 11.4219 6.92969C11.75 5.98177 12.2604 4.94271 12.9531 3.8125C13.6823 2.64583 14.7214 1.51562 16.0703 0.421875H18.6406C17.9115 1.15104 17.2917 1.88021 16.7812 2.60938C16.3073 3.33854 15.9062 4.01302 15.5781 4.63281C15.2135 5.32552 14.9583 6.01823 14.8125 6.71094C15.9062 6.71094 16.8359 7.09375 17.6016 7.85938C18.3672 8.625 18.75 9.55469 18.75 10.6484C18.75 11.7422 18.3672 12.6719 17.6016 13.4375C16.8359 14.2031 15.9062 14.5859 14.8125 14.5859ZM4.20312 14.5859C3.10938 14.5859 2.17969 14.2031 1.41406 13.4375C0.648438 12.6719 0.265625 11.7422 0.265625 10.6484C0.265625 10.4661 0.283854 10.0469 0.320312 9.39062C0.356771 8.69792 0.520833 7.8776 0.8125 6.92969C1.10417 5.98177 1.59635 4.94271 2.28906 3.8125C3.01823 2.64583 4.05729 1.51562 5.40625 0.421875H7.97656C7.2474 1.15104 6.6276 1.88021 6.11719 2.60938C5.64323 3.33854 5.26042 4.01302 4.96875 4.63281C4.60417 5.32552 4.34896 6.01823 4.20312 6.71094C5.29688 6.71094 6.20833 7.09375 6.9375 7.85938C7.70312 8.625 8.08594 9.55469 8.08594 10.6484C8.08594 11.7422 7.70312 12.6719 6.9375 13.4375C6.20833 14.2031 5.29688 14.5859 4.20312 14.5859Z" fill="#E30012"/>
</svg>
